# xmcd CD database file
#
# Track frame offsets:
#	150
#	16510
#	32806
#	50183
#	68766
#	84094
#	99380
#	121115
#	135889
#	153743
#	173726
#	190717
#	208057
#	224921
#	242320
#	257008
#	274972
#	292547
#	309780
#	324651
#
# Disc length: 4558 seconds
#
# Revision: 0
# Processed by: cddbd v1.4PL0 Copyright (c) Steve Scherf et al.
# Submitted via: CDex 1.51
#
DISCID=0a11cc14
DTITLE=Southern Pacific - Southern Pacific/Zuma
DYEAR=2000
DGENRE=Country
TTITLE0=First One To Go
TTITLE1=Someone's Gonna Love Me Tonight
TTITLE2=Thing About You
TTITLE3=Perfect Stranger
TTITLE4=Send Me Somebody To Love
TTITLE5=Reno Bound
TTITLE6=The Blaster
TTITLE7=Luanne
TTITLE8=Bluebird Wine
TTITLE9=Heroes
TTITLE10=Midnight Highway
TTITLE11=Honey I Dare You
TTITLE12=New Shade Of Blue
TTITLE13=Dream On
TTITLE14=The Invisible Man
TTITLE15=Wheels On The Line
TTITLE16=Just Hang On
TTITLE17=All Is Lost
TTITLE18=Bail Out
TTITLE19=Trail Of Tears
EXTD=YEAR: 2000
EXTT0=
EXTT1=
EXTT2=
EXTT3=
EXTT4=
EXTT5=
EXTT6=
EXTT7=
EXTT8=
EXTT9=
EXTT10=
EXTT11=
EXTT12=
EXTT13=
EXTT14=
EXTT15=
EXTT16=
EXTT17=
EXTT18=
EXTT19=
PLAYORDER=
